<?xml version="1.0" encoding="UTF-8" standalone="no"?>
<!DOCTYPE svg PUBLIC "-//W3C//DTD SVG 1.1//EN"
 "http://www.w3.org/Graphics/SVG/1.1/DTD/svg11.dtd">
<!-- Generated by graphviz version 2.49.3 (20211023.0002)
 -->
<!-- Title: alpha_classic_net_1635683367.715601 Pages: 1 -->
<svg width="1521pt" height="121pt"
 viewBox="0.00 0.00 1521.00 121.00" xmlns="http://www.w3.org/2000/svg" xmlns:xlink="http://www.w3.org/1999/xlink">
<g id="graph0" class="graph" transform="scale(1 1) rotate(0) translate(4 117)">
<title>alpha_classic_net_1635683367.715601</title>
<!-- 5036720960 -->
<g id="node1" class="node">
<title>5036720960</title>
<polygon fill="none" stroke="black" points="1055,-72 1000,-72 1000,-36 1055,-36 1055,-72"/>
<text text-anchor="middle" x="1027.5" y="-50.9" font-family="Times,serif" font-size="12.00">produce</text>
</g>
<!-- 5037663712 -->
<g id="node13" class="node">
<title>5037663712</title>
<ellipse fill="none" stroke="black" cx="1208" cy="-86" rx="27" ry="27"/>
</g>
<!-- 5036720960&#45;&gt;5037663712 -->
<g id="edge13" class="edge">
<title>5036720960&#45;&gt;5037663712</title>
<path fill="none" stroke="black" d="M1055.22,-58.79C1086.07,-64.32 1136.95,-73.44 1171.2,-79.58"/>
<polygon fill="black" stroke="black" points="1170.79,-83.06 1181.25,-81.38 1172.03,-76.17 1170.79,-83.06"/>
</g>
<!-- 5037665248 -->
<g id="node14" class="node">
<title>5037665248</title>
<ellipse fill="none" stroke="black" cx="1118" cy="-27" rx="27" ry="27"/>
</g>
<!-- 5036720960&#45;&gt;5037665248 -->
<g id="edge14" class="edge">
<title>5036720960&#45;&gt;5037665248</title>
<path fill="none" stroke="black" d="M1055.05,-45.9C1063.65,-43.28 1073.32,-40.33 1082.41,-37.55"/>
<polygon fill="black" stroke="black" points="1083.44,-40.9 1091.98,-34.63 1081.4,-34.2 1083.44,-40.9"/>
</g>
<!-- 5037665344 -->
<g id="node2" class="node">
<title>5037665344</title>
<polygon fill="none" stroke="black" points="874,-72 820,-72 820,-36 874,-36 874,-72"/>
<text text-anchor="middle" x="847" y="-50.9" font-family="Times,serif" font-size="12.00">start</text>
</g>
<!-- 5037665392 -->
<g id="node16" class="node">
<title>5037665392</title>
<ellipse fill="none" stroke="black" cx="937" cy="-54" rx="27" ry="27"/>
</g>
<!-- 5037665344&#45;&gt;5037665392 -->
<g id="edge16" class="edge">
<title>5037665344&#45;&gt;5037665392</title>
<path fill="none" stroke="black" d="M874.4,-54C882.39,-54 891.31,-54 899.82,-54"/>
<polygon fill="black" stroke="black" points="899.92,-57.5 909.92,-54 899.92,-50.5 899.92,-57.5"/>
</g>
<!-- 5037424400 -->
<g id="node3" class="node">
<title>5037424400</title>
<polygon fill="none" stroke="black" points="694,-72 640,-72 640,-36 694,-36 694,-72"/>
<text text-anchor="middle" x="667" y="-50.9" font-family="Times,serif" font-size="12.00">close</text>
</g>
<!-- 5037664480 -->
<g id="node11" class="node">
<title>5037664480</title>
<ellipse fill="none" stroke="black" cx="757" cy="-54" rx="27" ry="27"/>
</g>
<!-- 5037424400&#45;&gt;5037664480 -->
<g id="edge10" class="edge">
<title>5037424400&#45;&gt;5037664480</title>
<path fill="none" stroke="black" d="M694.4,-54C702.39,-54 711.31,-54 719.82,-54"/>
<polygon fill="black" stroke="black" points="719.92,-57.5 729.92,-54 719.92,-50.5 719.92,-57.5"/>
</g>
<!-- 5037665008 -->
<g id="node4" class="node">
<title>5037665008</title>
<polygon fill="none" stroke="black" points="1235,-41 1181,-41 1181,-5 1235,-5 1235,-41"/>
<text text-anchor="middle" x="1208" y="-19.9" font-family="Times,serif" font-size="12.00">remove</text>
</g>
<!-- 5037662944 -->
<g id="node15" class="node">
<title>5037662944</title>
<ellipse fill="none" stroke="black" cx="1298" cy="-27" rx="27" ry="27"/>
</g>
<!-- 5037665008&#45;&gt;5037662944 -->
<g id="edge15" class="edge">
<title>5037665008&#45;&gt;5037662944</title>
<path fill="none" stroke="black" d="M1235.4,-24.2C1243.39,-24.56 1252.31,-24.97 1260.82,-25.36"/>
<polygon fill="black" stroke="black" points="1260.77,-28.86 1270.92,-25.81 1261.09,-21.86 1260.77,-28.86"/>
</g>
<!-- 5036721968 -->
<g id="node5" class="node">
<title>5036721968</title>
<polygon fill="none" stroke="black" points="334,-72 277,-72 277,-36 334,-36 334,-72"/>
<text text-anchor="middle" x="305.5" y="-50.9" font-family="Times,serif" font-size="12.00">take pad</text>
</g>
<!-- 5037666016 -->
<g id="node17" class="node">
<title>5037666016</title>
<ellipse fill="none" stroke="black" cx="397" cy="-54" rx="27" ry="27"/>
</g>
<!-- 5036721968&#45;&gt;5037666016 -->
<g id="edge18" class="edge">
<title>5036721968&#45;&gt;5037666016</title>
<path fill="none" stroke="black" d="M334.33,-54C342.35,-54 351.23,-54 359.69,-54"/>
<polygon fill="black" stroke="black" points="359.72,-57.5 369.72,-54 359.72,-50.5 359.72,-57.5"/>
</g>
<!-- 5036721872 -->
<g id="node6" class="node">
<title>5036721872</title>
<polygon fill="none" stroke="black" points="514,-72 460,-72 460,-36 514,-36 514,-72"/>
<text text-anchor="middle" x="487" y="-50.9" font-family="Times,serif" font-size="12.00">add pad</text>
</g>
<!-- 5037663856 -->
<g id="node10" class="node">
<title>5037663856</title>
<ellipse fill="none" stroke="black" cx="577" cy="-54" rx="27" ry="27"/>
</g>
<!-- 5036721872&#45;&gt;5037663856 -->
<g id="edge9" class="edge">
<title>5036721872&#45;&gt;5037663856</title>
<path fill="none" stroke="black" d="M514.4,-54C522.39,-54 531.31,-54 539.82,-54"/>
<polygon fill="black" stroke="black" points="539.92,-57.5 549.92,-54 539.92,-50.5 539.92,-57.5"/>
</g>
<!-- 5037665584 -->
<g id="node7" class="node">
<title>5037665584</title>
<polygon fill="none" stroke="black" points="151,-72 90,-72 90,-36 151,-36 151,-72"/>
<text text-anchor="middle" x="120.5" y="-50.9" font-family="Times,serif" font-size="12.00">power on</text>
</g>
<!-- 5037664768 -->
<g id="node12" class="node">
<title>5037664768</title>
<ellipse fill="none" stroke="black" cx="214" cy="-54" rx="27" ry="27"/>
</g>
<!-- 5037665584&#45;&gt;5037664768 -->
<g id="edge12" class="edge">
<title>5037665584&#45;&gt;5037664768</title>
<path fill="none" stroke="black" d="M151.21,-54C159.37,-54 168.31,-54 176.79,-54"/>
<polygon fill="black" stroke="black" points="176.83,-57.5 186.83,-54 176.83,-50.5 176.83,-57.5"/>
</g>
<!-- 5037665680 -->
<g id="node8" class="node">
<title>5037665680</title>
<polygon fill="none" stroke="black" points="1415,-72 1361,-72 1361,-36 1415,-36 1415,-72"/>
<text text-anchor="middle" x="1388" y="-50.9" font-family="Times,serif" font-size="12.00">enjoy</text>
</g>
<!-- 5037664240 -->
<g id="node18" class="node">
<title>5037664240</title>
<ellipse fill="none" stroke="black" cx="1482" cy="-54" rx="27" ry="27"/>
<ellipse fill="none" stroke="black" cx="1482" cy="-54" rx="31" ry="31"/>
<text text-anchor="start" x="1473" y="-45.9" font-family="Times,serif" font-size="32.00">■</text>
</g>
<!-- 5037665680&#45;&gt;5037664240 -->
<g id="edge11" class="edge">
<title>5037665680&#45;&gt;5037664240</title>
<path fill="none" stroke="black" d="M1415.12,-54C1423.14,-54 1432.15,-54 1440.88,-54"/>
<polygon fill="black" stroke="black" points="1440.92,-57.5 1450.92,-54 1440.92,-50.5 1440.92,-57.5"/>
</g>
<!-- 4691116432 -->
<g id="node9" class="node">
<title>4691116432</title>
<ellipse fill="none" stroke="black" cx="27" cy="-54" rx="27" ry="27"/>
<text text-anchor="start" x="17" y="-45.3" font-family="Times,serif" font-size="34.00">●</text>
</g>
<!-- 4691116432&#45;&gt;5037665584 -->
<g id="edge17" class="edge">
<title>4691116432&#45;&gt;5037665584</title>
<path fill="none" stroke="black" d="M54.47,-54C62.35,-54 71.16,-54 79.69,-54"/>
<polygon fill="black" stroke="black" points="79.88,-57.5 89.88,-54 79.88,-50.5 79.88,-57.5"/>
</g>
<!-- 5037663856&#45;&gt;5037424400 -->
<g id="edge1" class="edge">
<title>5037663856&#45;&gt;5037424400</title>
<path fill="none" stroke="black" d="M604.4,-54C612.39,-54 621.31,-54 629.82,-54"/>
<polygon fill="black" stroke="black" points="629.92,-57.5 639.92,-54 629.92,-50.5 629.92,-57.5"/>
</g>
<!-- 5037664480&#45;&gt;5037665344 -->
<g id="edge2" class="edge">
<title>5037664480&#45;&gt;5037665344</title>
<path fill="none" stroke="black" d="M784.4,-54C792.39,-54 801.31,-54 809.82,-54"/>
<polygon fill="black" stroke="black" points="809.92,-57.5 819.92,-54 809.92,-50.5 809.92,-57.5"/>
</g>
<!-- 5037664768&#45;&gt;5036721968 -->
<g id="edge3" class="edge">
<title>5037664768&#45;&gt;5036721968</title>
<path fill="none" stroke="black" d="M241.37,-54C249.29,-54 258.13,-54 266.64,-54"/>
<polygon fill="black" stroke="black" points="266.76,-57.5 276.76,-54 266.76,-50.5 266.76,-57.5"/>
</g>
<!-- 5037663712&#45;&gt;5037665680 -->
<g id="edge4" class="edge">
<title>5037663712&#45;&gt;5037665680</title>
<path fill="none" stroke="black" d="M1234.88,-81.35C1265.38,-75.86 1316.25,-66.72 1350.68,-60.53"/>
<polygon fill="black" stroke="black" points="1351.57,-63.93 1360.8,-58.71 1350.33,-57.04 1351.57,-63.93"/>
</g>
<!-- 5037665248&#45;&gt;5037665008 -->
<g id="edge5" class="edge">
<title>5037665248&#45;&gt;5037665008</title>
<path fill="none" stroke="black" d="M1145.4,-25.8C1153.39,-25.44 1162.31,-25.03 1170.82,-24.64"/>
<polygon fill="black" stroke="black" points="1171.09,-28.14 1180.92,-24.19 1170.77,-21.14 1171.09,-28.14"/>
</g>
<!-- 5037662944&#45;&gt;5037665680 -->
<g id="edge6" class="edge">
<title>5037662944&#45;&gt;5037665680</title>
<path fill="none" stroke="black" d="M1323.98,-34.66C1332.42,-37.25 1342,-40.19 1351.11,-42.99"/>
<polygon fill="black" stroke="black" points="1350.14,-46.35 1360.73,-45.94 1352.19,-39.66 1350.14,-46.35"/>
</g>
<!-- 5037665392&#45;&gt;5036720960 -->
<g id="edge7" class="edge">
<title>5037665392&#45;&gt;5036720960</title>
<path fill="none" stroke="black" d="M964.07,-54C972.12,-54 981.14,-54 989.76,-54"/>
<polygon fill="black" stroke="black" points="990,-57.5 1000,-54 990,-50.5 990,-57.5"/>
</g>
<!-- 5037666016&#45;&gt;5036721872 -->
<g id="edge8" class="edge">
<title>5037666016&#45;&gt;5036721872</title>
<path fill="none" stroke="black" d="M424.4,-54C432.39,-54 441.31,-54 449.82,-54"/>
<polygon fill="black" stroke="black" points="449.92,-57.5 459.92,-54 449.92,-50.5 449.92,-57.5"/>
</g>
</g>
</svg>
