<?xml version="1.0" encoding="UTF-8" standalone="no"?>
<!DOCTYPE svg PUBLIC "-//W3C//DTD SVG 1.1//EN"
 "http://www.w3.org/Graphics/SVG/1.1/DTD/svg11.dtd">
<!-- Generated by graphviz version 2.49.3 (20211023.0002)
 -->
<!-- Pages: 1 -->
<svg width="1521pt" height="98pt"
 viewBox="0.00 0.00 1521.00 98.00" xmlns="http://www.w3.org/2000/svg" xmlns:xlink="http://www.w3.org/1999/xlink">
<g id="graph0" class="graph" transform="scale(1 1) rotate(0) translate(4 94)">
<!-- 5038030080 -->
<g id="node1" class="node">
<title>5038030080</title>
<polygon fill="none" stroke="black" points="1055,-63 1000,-63 1000,-27 1055,-27 1055,-63"/>
<text text-anchor="middle" x="1027.5" y="-41.9" font-family="Times,serif" font-size="12.00">produce</text>
</g>
<!-- 5042395120 -->
<g id="node12" class="node">
<title>5042395120</title>
<ellipse fill="none" stroke="black" cx="1118" cy="-45" rx="27" ry="27"/>
</g>
<!-- 5038030080&#45;&gt;5042395120 -->
<g id="edge15" class="edge">
<title>5038030080&#45;&gt;5042395120</title>
<path fill="none" stroke="black" d="M1055.05,-45C1063.09,-45 1072.06,-45 1080.62,-45"/>
<polygon fill="black" stroke="black" points="1080.77,-48.5 1090.77,-45 1080.77,-41.5 1080.77,-48.5"/>
</g>
<!-- 5038029696 -->
<g id="node2" class="node">
<title>5038029696</title>
<polygon fill="none" stroke="black" points="874,-63 820,-63 820,-27 874,-27 874,-63"/>
<text text-anchor="middle" x="847" y="-41.9" font-family="Times,serif" font-size="12.00">start</text>
</g>
<!-- 5042335072 -->
<g id="node16" class="node">
<title>5042335072</title>
<ellipse fill="none" stroke="black" cx="937" cy="-45" rx="27" ry="27"/>
</g>
<!-- 5038029696&#45;&gt;5042335072 -->
<g id="edge19" class="edge">
<title>5038029696&#45;&gt;5042335072</title>
<path fill="none" stroke="black" d="M874.4,-45C882.39,-45 891.31,-45 899.82,-45"/>
<polygon fill="black" stroke="black" points="899.92,-48.5 909.92,-45 899.92,-41.5 899.92,-48.5"/>
</g>
<!-- 5038030656 -->
<g id="node3" class="node">
<title>5038030656</title>
<polygon fill="none" stroke="black" points="334,-63 277,-63 277,-27 334,-27 334,-63"/>
<text text-anchor="middle" x="305.5" y="-41.9" font-family="Times,serif" font-size="12.00">take pad</text>
</g>
<!-- 5042335696 -->
<g id="node13" class="node">
<title>5042335696</title>
<ellipse fill="none" stroke="black" cx="397" cy="-45" rx="27" ry="27"/>
</g>
<!-- 5038030656&#45;&gt;5042335696 -->
<g id="edge20" class="edge">
<title>5038030656&#45;&gt;5042335696</title>
<path fill="none" stroke="black" d="M334.33,-45C342.35,-45 351.23,-45 359.69,-45"/>
<polygon fill="black" stroke="black" points="359.72,-48.5 369.72,-45 359.72,-41.5 359.72,-48.5"/>
</g>
<!-- 5042395360 -->
<g id="node4" class="node">
<title>5042395360</title>
<polygon fill="black" stroke="black" points="1235,-90 1181,-90 1181,-54 1235,-54 1235,-90"/>
</g>
<!-- 5038514816 -->
<g id="node15" class="node">
<title>5038514816</title>
<ellipse fill="none" stroke="black" cx="1298" cy="-45" rx="27" ry="27"/>
</g>
<!-- 5042395360&#45;&gt;5038514816 -->
<g id="edge5" class="edge">
<title>5042395360&#45;&gt;5038514816</title>
<path fill="none" stroke="black" d="M1235.4,-63.9C1243.79,-61.33 1253.2,-58.44 1262.09,-55.71"/>
<polygon fill="black" stroke="black" points="1263.29,-59 1271.82,-52.72 1261.24,-52.31 1263.29,-59"/>
</g>
<!-- 5038030512 -->
<g id="node5" class="node">
<title>5038030512</title>
<polygon fill="none" stroke="black" points="514,-63 460,-63 460,-27 514,-27 514,-63"/>
<text text-anchor="middle" x="487" y="-41.9" font-family="Times,serif" font-size="12.00">add pad</text>
</g>
<!-- 5042335600 -->
<g id="node14" class="node">
<title>5042335600</title>
<ellipse fill="none" stroke="black" cx="577" cy="-45" rx="27" ry="27"/>
</g>
<!-- 5038030512&#45;&gt;5042335600 -->
<g id="edge1" class="edge">
<title>5038030512&#45;&gt;5042335600</title>
<path fill="none" stroke="black" d="M514.4,-45C522.39,-45 531.31,-45 539.82,-45"/>
<polygon fill="black" stroke="black" points="539.92,-48.5 549.92,-45 539.92,-41.5 539.92,-48.5"/>
</g>
<!-- 5038029360 -->
<g id="node6" class="node">
<title>5038029360</title>
<polygon fill="none" stroke="black" points="151,-90 90,-90 90,-54 151,-54 151,-90"/>
<text text-anchor="middle" x="120.5" y="-68.9" font-family="Times,serif" font-size="12.00">power on</text>
</g>
<!-- 5041944848 -->
<g id="node18" class="node">
<title>5041944848</title>
<ellipse fill="none" stroke="black" cx="214" cy="-45" rx="27" ry="27"/>
</g>
<!-- 5038029360&#45;&gt;5041944848 -->
<g id="edge8" class="edge">
<title>5038029360&#45;&gt;5041944848</title>
<path fill="none" stroke="black" d="M151.21,-63.23C159.78,-60.71 169.2,-57.92 178.06,-55.31"/>
<polygon fill="black" stroke="black" points="179.14,-58.64 187.74,-52.45 177.16,-51.93 179.14,-58.64"/>
</g>
<!-- 5038029648 -->
<g id="node7" class="node">
<title>5038029648</title>
<polygon fill="none" stroke="black" points="694,-63 640,-63 640,-27 694,-27 694,-63"/>
<text text-anchor="middle" x="667" y="-41.9" font-family="Times,serif" font-size="12.00">close</text>
</g>
<!-- 5042335264 -->
<g id="node17" class="node">
<title>5042335264</title>
<ellipse fill="none" stroke="black" cx="757" cy="-45" rx="27" ry="27"/>
</g>
<!-- 5038029648&#45;&gt;5042335264 -->
<g id="edge2" class="edge">
<title>5038029648&#45;&gt;5042335264</title>
<path fill="none" stroke="black" d="M694.4,-45C702.39,-45 711.31,-45 719.82,-45"/>
<polygon fill="black" stroke="black" points="719.92,-48.5 729.92,-45 719.92,-41.5 719.92,-48.5"/>
</g>
<!-- 5038030032 -->
<g id="node8" class="node">
<title>5038030032</title>
<polygon fill="none" stroke="black" points="1415,-63 1361,-63 1361,-27 1415,-27 1415,-63"/>
<text text-anchor="middle" x="1388" y="-41.9" font-family="Times,serif" font-size="12.00">enjoy</text>
</g>
<!-- 5038029792 -->
<g id="node19" class="node">
<title>5038029792</title>
<ellipse fill="none" stroke="black" cx="1482" cy="-45" rx="27" ry="27"/>
<ellipse fill="none" stroke="black" cx="1482" cy="-45" rx="31" ry="31"/>
<text text-anchor="start" x="1473" y="-36.9" font-family="Times,serif" font-size="32.00">■</text>
</g>
<!-- 5038030032&#45;&gt;5038029792 -->
<g id="edge3" class="edge">
<title>5038030032&#45;&gt;5038029792</title>
<path fill="none" stroke="black" d="M1415.12,-45C1423.14,-45 1432.15,-45 1440.88,-45"/>
<polygon fill="black" stroke="black" points="1440.92,-48.5 1450.92,-45 1440.92,-41.5 1440.92,-48.5"/>
</g>
<!-- 5038030128 -->
<g id="node9" class="node">
<title>5038030128</title>
<polygon fill="none" stroke="black" points="1235,-36 1181,-36 1181,0 1235,0 1235,-36"/>
<text text-anchor="middle" x="1208" y="-14.9" font-family="Times,serif" font-size="12.00">remove</text>
</g>
<!-- 5038030128&#45;&gt;5038514816 -->
<g id="edge16" class="edge">
<title>5038030128&#45;&gt;5038514816</title>
<path fill="none" stroke="black" d="M1235.4,-26.1C1243.79,-28.67 1253.2,-31.56 1262.09,-34.29"/>
<polygon fill="black" stroke="black" points="1261.24,-37.69 1271.82,-37.28 1263.29,-31 1261.24,-37.69"/>
</g>
<!-- 5042393296 -->
<g id="node10" class="node">
<title>5042393296</title>
<polygon fill="black" stroke="black" points="147.5,-36 93.5,-36 93.5,0 147.5,0 147.5,-36"/>
</g>
<!-- 5042393296&#45;&gt;5041944848 -->
<g id="edge4" class="edge">
<title>5042393296&#45;&gt;5041944848</title>
<path fill="none" stroke="black" d="M147.97,-25.81C157.39,-28.59 168.14,-31.76 178.16,-34.72"/>
<polygon fill="black" stroke="black" points="177.27,-38.11 187.85,-37.58 179.25,-31.39 177.27,-38.11"/>
</g>
<!-- 5038030752 -->
<g id="node11" class="node">
<title>5038030752</title>
<ellipse fill="none" stroke="black" cx="27" cy="-45" rx="27" ry="27"/>
<text text-anchor="start" x="17" y="-36.3" font-family="Times,serif" font-size="34.00">●</text>
</g>
<!-- 5038030752&#45;&gt;5038029360 -->
<g id="edge18" class="edge">
<title>5038030752&#45;&gt;5038029360</title>
<path fill="none" stroke="black" d="M53,-52.38C61.4,-54.85 70.97,-57.68 80.19,-60.4"/>
<polygon fill="black" stroke="black" points="79.4,-63.82 89.98,-63.29 81.38,-57.1 79.4,-63.82"/>
</g>
<!-- 5038030752&#45;&gt;5042393296 -->
<g id="edge17" class="edge">
<title>5038030752&#45;&gt;5042393296</title>
<path fill="none" stroke="black" d="M53,-37.62C62.37,-34.86 73.21,-31.66 83.38,-28.66"/>
<polygon fill="black" stroke="black" points="84.65,-31.93 93.25,-25.75 82.67,-25.22 84.65,-31.93"/>
</g>
<!-- 5042395120&#45;&gt;5042395360 -->
<g id="edge6" class="edge">
<title>5042395120&#45;&gt;5042395360</title>
<path fill="none" stroke="black" d="M1143.98,-52.66C1152.42,-55.25 1162,-58.19 1171.11,-60.99"/>
<polygon fill="black" stroke="black" points="1170.14,-64.35 1180.73,-63.94 1172.19,-57.66 1170.14,-64.35"/>
</g>
<!-- 5042395120&#45;&gt;5038030128 -->
<g id="edge7" class="edge">
<title>5042395120&#45;&gt;5038030128</title>
<path fill="none" stroke="black" d="M1143.98,-37.34C1152.42,-34.75 1162,-31.81 1171.11,-29.01"/>
<polygon fill="black" stroke="black" points="1172.19,-32.34 1180.73,-26.06 1170.14,-25.65 1172.19,-32.34"/>
</g>
<!-- 5042335696&#45;&gt;5038030512 -->
<g id="edge9" class="edge">
<title>5042335696&#45;&gt;5038030512</title>
<path fill="none" stroke="black" d="M424.4,-45C432.39,-45 441.31,-45 449.82,-45"/>
<polygon fill="black" stroke="black" points="449.92,-48.5 459.92,-45 449.92,-41.5 449.92,-48.5"/>
</g>
<!-- 5042335600&#45;&gt;5038029648 -->
<g id="edge10" class="edge">
<title>5042335600&#45;&gt;5038029648</title>
<path fill="none" stroke="black" d="M604.4,-45C612.39,-45 621.31,-45 629.82,-45"/>
<polygon fill="black" stroke="black" points="629.92,-48.5 639.92,-45 629.92,-41.5 629.92,-48.5"/>
</g>
<!-- 5038514816&#45;&gt;5038030032 -->
<g id="edge11" class="edge">
<title>5038514816&#45;&gt;5038030032</title>
<path fill="none" stroke="black" d="M1325.4,-45C1333.39,-45 1342.31,-45 1350.82,-45"/>
<polygon fill="black" stroke="black" points="1350.92,-48.5 1360.92,-45 1350.92,-41.5 1350.92,-48.5"/>
</g>
<!-- 5042335072&#45;&gt;5038030080 -->
<g id="edge12" class="edge">
<title>5042335072&#45;&gt;5038030080</title>
<path fill="none" stroke="black" d="M964.07,-45C972.12,-45 981.14,-45 989.76,-45"/>
<polygon fill="black" stroke="black" points="990,-48.5 1000,-45 990,-41.5 990,-48.5"/>
</g>
<!-- 5042335264&#45;&gt;5038029696 -->
<g id="edge13" class="edge">
<title>5042335264&#45;&gt;5038029696</title>
<path fill="none" stroke="black" d="M784.4,-45C792.39,-45 801.31,-45 809.82,-45"/>
<polygon fill="black" stroke="black" points="809.92,-48.5 819.92,-45 809.92,-41.5 809.92,-48.5"/>
</g>
<!-- 5041944848&#45;&gt;5038030656 -->
<g id="edge14" class="edge">
<title>5041944848&#45;&gt;5038030656</title>
<path fill="none" stroke="black" d="M241.37,-45C249.29,-45 258.13,-45 266.64,-45"/>
<polygon fill="black" stroke="black" points="266.76,-48.5 276.76,-45 266.76,-41.5 266.76,-48.5"/>
</g>
</g>
</svg>
