<?xml version="1.0" encoding="UTF-8" standalone="no"?>
<!DOCTYPE svg PUBLIC "-//W3C//DTD SVG 1.1//EN"
 "http://www.w3.org/Graphics/SVG/1.1/DTD/svg11.dtd">
<!-- Generated by graphviz version 2.49.3 (20211023.0002)
 -->
<!-- Title: imdf_net_1635683368.340101 Pages: 1 -->
<svg width="1521pt" height="98pt"
 viewBox="0.00 0.00 1521.00 98.00" xmlns="http://www.w3.org/2000/svg" xmlns:xlink="http://www.w3.org/1999/xlink">
<g id="graph0" class="graph" transform="scale(1 1) rotate(0) translate(4 94)">
<title>imdf_net_1635683368.340101</title>
<!-- 5042795808 -->
<g id="node1" class="node">
<title>5042795808</title>
<polygon fill="none" stroke="black" points="514,-63 460,-63 460,-27 514,-27 514,-63"/>
<text text-anchor="middle" x="487" y="-41.9" font-family="Times,serif" font-size="12.00">add pad</text>
</g>
<!-- 5042795712 -->
<g id="node14" class="node">
<title>5042795712</title>
<ellipse fill="none" stroke="black" cx="577" cy="-45" rx="27" ry="27"/>
</g>
<!-- 5042795808&#45;&gt;5042795712 -->
<g id="edge6" class="edge">
<title>5042795808&#45;&gt;5042795712</title>
<path fill="none" stroke="black" d="M514.4,-45C522.39,-45 531.31,-45 539.82,-45"/>
<polygon fill="black" stroke="black" points="539.92,-48.5 549.92,-45 539.92,-41.5 539.92,-48.5"/>
</g>
<!-- 5042796192 -->
<g id="node2" class="node">
<title>5042796192</title>
<polygon fill="none" stroke="black" points="694,-63 640,-63 640,-27 694,-27 694,-63"/>
<text text-anchor="middle" x="667" y="-41.9" font-family="Times,serif" font-size="12.00">close</text>
</g>
<!-- 5042796000 -->
<g id="node15" class="node">
<title>5042796000</title>
<ellipse fill="none" stroke="black" cx="757" cy="-45" rx="27" ry="27"/>
</g>
<!-- 5042796192&#45;&gt;5042796000 -->
<g id="edge1" class="edge">
<title>5042796192&#45;&gt;5042796000</title>
<path fill="none" stroke="black" d="M694.4,-45C702.39,-45 711.31,-45 719.82,-45"/>
<polygon fill="black" stroke="black" points="719.92,-48.5 729.92,-45 719.92,-41.5 719.92,-48.5"/>
</g>
<!-- 5042795424 -->
<g id="node3" class="node">
<title>5042795424</title>
<polygon fill="none" stroke="black" points="334,-63 277,-63 277,-27 334,-27 334,-63"/>
<text text-anchor="middle" x="305.5" y="-41.9" font-family="Times,serif" font-size="12.00">take pad</text>
</g>
<!-- 5042794656 -->
<g id="node13" class="node">
<title>5042794656</title>
<ellipse fill="none" stroke="black" cx="397" cy="-45" rx="27" ry="27"/>
</g>
<!-- 5042795424&#45;&gt;5042794656 -->
<g id="edge2" class="edge">
<title>5042795424&#45;&gt;5042794656</title>
<path fill="none" stroke="black" d="M334.33,-45C342.35,-45 351.23,-45 359.69,-45"/>
<polygon fill="black" stroke="black" points="359.72,-48.5 369.72,-45 359.72,-41.5 359.72,-48.5"/>
</g>
<!-- 5038030560 -->
<g id="node4" class="node">
<title>5038030560</title>
<polygon fill="none" stroke="black" points="874,-63 820,-63 820,-27 874,-27 874,-63"/>
<text text-anchor="middle" x="847" y="-41.9" font-family="Times,serif" font-size="12.00">start</text>
</g>
<!-- 5042393392 -->
<g id="node16" class="node">
<title>5042393392</title>
<ellipse fill="none" stroke="black" cx="937" cy="-45" rx="27" ry="27"/>
</g>
<!-- 5038030560&#45;&gt;5042393392 -->
<g id="edge4" class="edge">
<title>5038030560&#45;&gt;5042393392</title>
<path fill="none" stroke="black" d="M874.4,-45C882.39,-45 891.31,-45 899.82,-45"/>
<polygon fill="black" stroke="black" points="899.92,-48.5 909.92,-45 899.92,-41.5 899.92,-48.5"/>
</g>
<!-- 5042559008 -->
<g id="node5" class="node">
<title>5042559008</title>
<polygon fill="black" stroke="black" points="1235,-90 1181,-90 1181,-54 1235,-54 1235,-90"/>
</g>
<!-- 5042558864 -->
<g id="node18" class="node">
<title>5042558864</title>
<ellipse fill="none" stroke="black" cx="1298" cy="-45" rx="27" ry="27"/>
</g>
<!-- 5042559008&#45;&gt;5042558864 -->
<g id="edge18" class="edge">
<title>5042559008&#45;&gt;5042558864</title>
<path fill="none" stroke="black" d="M1235.4,-63.9C1243.79,-61.33 1253.2,-58.44 1262.09,-55.71"/>
<polygon fill="black" stroke="black" points="1263.29,-59 1271.82,-52.72 1261.24,-52.31 1263.29,-59"/>
</g>
<!-- 5042559392 -->
<g id="node6" class="node">
<title>5042559392</title>
<polygon fill="none" stroke="black" points="1235,-36 1181,-36 1181,0 1235,0 1235,-36"/>
<text text-anchor="middle" x="1208" y="-14.9" font-family="Times,serif" font-size="12.00">remove</text>
</g>
<!-- 5042559392&#45;&gt;5042558864 -->
<g id="edge7" class="edge">
<title>5042559392&#45;&gt;5042558864</title>
<path fill="none" stroke="black" d="M1235.4,-26.1C1243.79,-28.67 1253.2,-31.56 1262.09,-34.29"/>
<polygon fill="black" stroke="black" points="1261.24,-37.69 1271.82,-37.28 1263.29,-31 1261.24,-37.69"/>
</g>
<!-- 5042794704 -->
<g id="node7" class="node">
<title>5042794704</title>
<polygon fill="black" stroke="black" points="147.5,-90 93.5,-90 93.5,-54 147.5,-54 147.5,-90"/>
</g>
<!-- 5038515728 -->
<g id="node12" class="node">
<title>5038515728</title>
<ellipse fill="none" stroke="black" cx="214" cy="-45" rx="27" ry="27"/>
</g>
<!-- 5042794704&#45;&gt;5038515728 -->
<g id="edge17" class="edge">
<title>5042794704&#45;&gt;5038515728</title>
<path fill="none" stroke="black" d="M147.97,-64.19C157.39,-61.41 168.14,-58.24 178.16,-55.28"/>
<polygon fill="black" stroke="black" points="179.25,-58.61 187.85,-52.42 177.27,-51.89 179.25,-58.61"/>
</g>
<!-- 5042795088 -->
<g id="node8" class="node">
<title>5042795088</title>
<polygon fill="none" stroke="black" points="151,-36 90,-36 90,0 151,0 151,-36"/>
<text text-anchor="middle" x="120.5" y="-14.9" font-family="Times,serif" font-size="12.00">power on</text>
</g>
<!-- 5042795088&#45;&gt;5038515728 -->
<g id="edge8" class="edge">
<title>5042795088&#45;&gt;5038515728</title>
<path fill="none" stroke="black" d="M151.21,-26.77C159.78,-29.29 169.2,-32.08 178.06,-34.69"/>
<polygon fill="black" stroke="black" points="177.16,-38.07 187.74,-37.55 179.14,-31.36 177.16,-38.07"/>
</g>
<!-- 5042558672 -->
<g id="node9" class="node">
<title>5042558672</title>
<polygon fill="none" stroke="black" points="1055,-63 1000,-63 1000,-27 1055,-27 1055,-63"/>
<text text-anchor="middle" x="1027.5" y="-41.9" font-family="Times,serif" font-size="12.00">produce</text>
</g>
<!-- 5042558480 -->
<g id="node17" class="node">
<title>5042558480</title>
<ellipse fill="none" stroke="black" cx="1118" cy="-45" rx="27" ry="27"/>
</g>
<!-- 5042558672&#45;&gt;5042558480 -->
<g id="edge5" class="edge">
<title>5042558672&#45;&gt;5042558480</title>
<path fill="none" stroke="black" d="M1055.05,-45C1063.09,-45 1072.06,-45 1080.62,-45"/>
<polygon fill="black" stroke="black" points="1080.77,-48.5 1090.77,-45 1080.77,-41.5 1080.77,-48.5"/>
</g>
<!-- 5042559632 -->
<g id="node10" class="node">
<title>5042559632</title>
<polygon fill="none" stroke="black" points="1415,-63 1361,-63 1361,-27 1415,-27 1415,-63"/>
<text text-anchor="middle" x="1388" y="-41.9" font-family="Times,serif" font-size="12.00">enjoy</text>
</g>
<!-- 5038514240 -->
<g id="node19" class="node">
<title>5038514240</title>
<ellipse fill="none" stroke="black" cx="1482" cy="-45" rx="27" ry="27"/>
<ellipse fill="none" stroke="black" cx="1482" cy="-45" rx="31" ry="31"/>
<text text-anchor="start" x="1473" y="-36.9" font-family="Times,serif" font-size="32.00">■</text>
</g>
<!-- 5042559632&#45;&gt;5038514240 -->
<g id="edge3" class="edge">
<title>5042559632&#45;&gt;5038514240</title>
<path fill="none" stroke="black" d="M1415.12,-45C1423.14,-45 1432.15,-45 1440.88,-45"/>
<polygon fill="black" stroke="black" points="1440.92,-48.5 1450.92,-45 1440.92,-41.5 1440.92,-48.5"/>
</g>
<!-- 5038515392 -->
<g id="node11" class="node">
<title>5038515392</title>
<ellipse fill="none" stroke="black" cx="27" cy="-45" rx="27" ry="27"/>
<text text-anchor="start" x="17" y="-36.3" font-family="Times,serif" font-size="34.00">●</text>
</g>
<!-- 5038515392&#45;&gt;5042794704 -->
<g id="edge20" class="edge">
<title>5038515392&#45;&gt;5042794704</title>
<path fill="none" stroke="black" d="M53,-52.38C62.37,-55.14 73.21,-58.34 83.38,-61.34"/>
<polygon fill="black" stroke="black" points="82.67,-64.78 93.25,-64.25 84.65,-58.07 82.67,-64.78"/>
</g>
<!-- 5038515392&#45;&gt;5042795088 -->
<g id="edge19" class="edge">
<title>5038515392&#45;&gt;5042795088</title>
<path fill="none" stroke="black" d="M53,-37.62C61.4,-35.15 70.97,-32.32 80.19,-29.6"/>
<polygon fill="black" stroke="black" points="81.38,-32.9 89.98,-26.71 79.4,-26.18 81.38,-32.9"/>
</g>
<!-- 5038515728&#45;&gt;5042795424 -->
<g id="edge9" class="edge">
<title>5038515728&#45;&gt;5042795424</title>
<path fill="none" stroke="black" d="M241.37,-45C249.29,-45 258.13,-45 266.64,-45"/>
<polygon fill="black" stroke="black" points="266.76,-48.5 276.76,-45 266.76,-41.5 266.76,-48.5"/>
</g>
<!-- 5042794656&#45;&gt;5042795808 -->
<g id="edge10" class="edge">
<title>5042794656&#45;&gt;5042795808</title>
<path fill="none" stroke="black" d="M424.4,-45C432.39,-45 441.31,-45 449.82,-45"/>
<polygon fill="black" stroke="black" points="449.92,-48.5 459.92,-45 449.92,-41.5 449.92,-48.5"/>
</g>
<!-- 5042795712&#45;&gt;5042796192 -->
<g id="edge11" class="edge">
<title>5042795712&#45;&gt;5042796192</title>
<path fill="none" stroke="black" d="M604.4,-45C612.39,-45 621.31,-45 629.82,-45"/>
<polygon fill="black" stroke="black" points="629.92,-48.5 639.92,-45 629.92,-41.5 629.92,-48.5"/>
</g>
<!-- 5042796000&#45;&gt;5038030560 -->
<g id="edge12" class="edge">
<title>5042796000&#45;&gt;5038030560</title>
<path fill="none" stroke="black" d="M784.4,-45C792.39,-45 801.31,-45 809.82,-45"/>
<polygon fill="black" stroke="black" points="809.92,-48.5 819.92,-45 809.92,-41.5 809.92,-48.5"/>
</g>
<!-- 5042393392&#45;&gt;5042558672 -->
<g id="edge13" class="edge">
<title>5042393392&#45;&gt;5042558672</title>
<path fill="none" stroke="black" d="M964.07,-45C972.12,-45 981.14,-45 989.76,-45"/>
<polygon fill="black" stroke="black" points="990,-48.5 1000,-45 990,-41.5 990,-48.5"/>
</g>
<!-- 5042558480&#45;&gt;5042559008 -->
<g id="edge15" class="edge">
<title>5042558480&#45;&gt;5042559008</title>
<path fill="none" stroke="black" d="M1143.98,-52.66C1152.42,-55.25 1162,-58.19 1171.11,-60.99"/>
<polygon fill="black" stroke="black" points="1170.14,-64.35 1180.73,-63.94 1172.19,-57.66 1170.14,-64.35"/>
</g>
<!-- 5042558480&#45;&gt;5042559392 -->
<g id="edge14" class="edge">
<title>5042558480&#45;&gt;5042559392</title>
<path fill="none" stroke="black" d="M1143.98,-37.34C1152.42,-34.75 1162,-31.81 1171.11,-29.01"/>
<polygon fill="black" stroke="black" points="1172.19,-32.34 1180.73,-26.06 1170.14,-25.65 1172.19,-32.34"/>
</g>
<!-- 5042558864&#45;&gt;5042559632 -->
<g id="edge16" class="edge">
<title>5042558864&#45;&gt;5042559632</title>
<path fill="none" stroke="black" d="M1325.4,-45C1333.39,-45 1342.31,-45 1350.82,-45"/>
<polygon fill="black" stroke="black" points="1350.92,-48.5 1360.92,-45 1350.92,-41.5 1350.92,-48.5"/>
</g>
</g>
</svg>
